<mxfile host="app.diagrams.net" modified="2022-04-10T15:00:13.329Z" agent="5.0 (Windows NT 10.0; Win64; x64) AppleWebKit/537.36 (KHTML, like Gecko) Chrome/100.0.4896.75 Safari/537.36" etag="ZYGPkiYSVjBieihwNPgx" version="17.4.1" type="github" pages="4">
  <diagram id="ZZaWvbL7WehwghxB7xiT" name="Allgemein">
    <mxGraphModel dx="1178" dy="641" grid="1" gridSize="10" guides="1" tooltips="1" connect="1" arrows="1" fold="1" page="1" pageScale="1" pageWidth="827" pageHeight="1169" math="0" shadow="0">
      <root>
        <mxCell id="0" />
        <mxCell id="1" parent="0" />
        <mxCell id="ZhtnkIa9gMXHqE3B64yn-1" value="&lt;h1&gt;&lt;span&gt;Bet on yourself&lt;/span&gt;&lt;/h1&gt;&lt;h1&gt;&lt;span style=&quot;font-weight: normal&quot;&gt;&lt;font style=&quot;font-size: 12px&quot;&gt;In diesem Quiz-Spiel sollen Spieler gemeinsam gegen einen&amp;nbsp;&lt;/font&gt;&lt;font style=&quot;font-size: 12px&quot;&gt;Computergegner antreten. Dabei verwenden sie ihr Smartphone&lt;/font&gt;&lt;/span&gt;&lt;/h1&gt;&lt;div&gt;&lt;span style=&quot;font-weight: normal&quot;&gt;&lt;font style=&quot;font-size: 12px&quot;&gt;&lt;br&gt;&lt;/font&gt;&lt;/span&gt;&lt;/div&gt;&lt;div&gt;&lt;ul&gt;&lt;li&gt;&lt;span style=&quot;font-weight: normal&quot;&gt;&lt;font style=&quot;font-size: 12px&quot;&gt;ca. 2-6 Spieler&lt;/font&gt;&lt;/span&gt;&lt;/li&gt;&lt;li&gt;&lt;span style=&quot;font-weight: normal&quot;&gt;&lt;font style=&quot;font-size: 12px&quot;&gt;viele Kategorien (ca. 50?)&lt;/font&gt;&lt;/span&gt;&lt;/li&gt;&lt;/ul&gt;&lt;/div&gt;" style="text;html=1;strokeColor=none;fillColor=none;spacing=5;spacingTop=-20;whiteSpace=wrap;overflow=hidden;rounded=0;" vertex="1" parent="1">
          <mxGeometry x="80" y="80" width="680" height="380" as="geometry" />
        </mxCell>
      </root>
    </mxGraphModel>
  </diagram>
  <diagram id="yXlYSf-k3Q8Q230KNEly" name="Ablauf Fragerunde">
    <mxGraphModel dx="1422" dy="774" grid="1" gridSize="10" guides="1" tooltips="1" connect="1" arrows="1" fold="1" page="1" pageScale="1" pageWidth="827" pageHeight="1169" math="0" shadow="0">
      <root>
        <mxCell id="0" />
        <mxCell id="1" parent="0" />
        <mxCell id="pzPkQIcfitXLZxl1gAb0-2" value="&lt;h1&gt;&lt;span&gt;Ablauf Fragerunde&lt;/span&gt;&lt;br&gt;&lt;/h1&gt;" style="text;html=1;strokeColor=none;fillColor=none;spacing=5;spacingTop=-20;whiteSpace=wrap;overflow=hidden;rounded=0;fontSize=12;" vertex="1" parent="1">
          <mxGeometry x="80" y="80" width="680" height="50" as="geometry" />
        </mxCell>
        <mxCell id="pzPkQIcfitXLZxl1gAb0-3" value="Pro Runde vier Fragen mit verschiedenen Kategorien" style="text;html=1;strokeColor=none;fillColor=none;align=left;verticalAlign=middle;whiteSpace=wrap;rounded=0;fontSize=12;" vertex="1" parent="1">
          <mxGeometry x="80" y="160" width="710" height="30" as="geometry" />
        </mxCell>
        <mxCell id="pzPkQIcfitXLZxl1gAb0-4" value="Die Wettrunde" style="swimlane;fontSize=12;" vertex="1" parent="1">
          <mxGeometry x="110" y="230" width="230" height="440" as="geometry">
            <mxRectangle x="110" y="230" width="110" height="23" as="alternateBounds" />
          </mxGeometry>
        </mxCell>
        <mxCell id="pzPkQIcfitXLZxl1gAb0-18" value="Your Points: 7" style="text;html=1;strokeColor=none;fillColor=none;align=center;verticalAlign=middle;whiteSpace=wrap;rounded=0;fontSize=12;" vertex="1" parent="pzPkQIcfitXLZxl1gAb0-4">
          <mxGeometry x="77" y="40" width="90" height="30" as="geometry" />
        </mxCell>
        <mxCell id="pzPkQIcfitXLZxl1gAb0-33" value="" style="group" vertex="1" connectable="0" parent="pzPkQIcfitXLZxl1gAb0-4">
          <mxGeometry x="70" y="360" width="100" height="72" as="geometry" />
        </mxCell>
        <mxCell id="pzPkQIcfitXLZxl1gAb0-29" value="Garten" style="rounded=1;whiteSpace=wrap;html=1;fontSize=12;" vertex="1" parent="pzPkQIcfitXLZxl1gAb0-33">
          <mxGeometry width="100" height="40" as="geometry" />
        </mxCell>
        <mxCell id="pzPkQIcfitXLZxl1gAb0-30" value="" style="shape=image;html=1;verticalAlign=top;verticalLabelPosition=bottom;labelBackgroundColor=#ffffff;imageAspect=0;aspect=fixed;image=https://cdn3.iconfinder.com/data/icons/user-interface-169/32/plus-128.png;fontSize=12;" vertex="1" parent="pzPkQIcfitXLZxl1gAb0-33">
          <mxGeometry x="73" y="43.5" width="27" height="27" as="geometry" />
        </mxCell>
        <mxCell id="pzPkQIcfitXLZxl1gAb0-31" value="" style="shape=image;html=1;verticalAlign=top;verticalLabelPosition=bottom;labelBackgroundColor=#ffffff;imageAspect=0;aspect=fixed;image=https://cdn4.iconfinder.com/data/icons/ionicons/512/icon-minus-128.png;fontSize=12;" vertex="1" parent="pzPkQIcfitXLZxl1gAb0-33">
          <mxGeometry y="47.5" width="23" height="23" as="geometry" />
        </mxCell>
        <mxCell id="pzPkQIcfitXLZxl1gAb0-32" value="0" style="text;html=1;strokeColor=none;fillColor=none;align=center;verticalAlign=middle;whiteSpace=wrap;rounded=0;fontSize=12;" vertex="1" parent="pzPkQIcfitXLZxl1gAb0-33">
          <mxGeometry x="20" y="42" width="60" height="30" as="geometry" />
        </mxCell>
        <mxCell id="pzPkQIcfitXLZxl1gAb0-34" value="" style="group" vertex="1" connectable="0" parent="pzPkQIcfitXLZxl1gAb0-4">
          <mxGeometry x="70" y="270" width="100" height="72" as="geometry" />
        </mxCell>
        <mxCell id="pzPkQIcfitXLZxl1gAb0-25" value="Autos" style="rounded=1;whiteSpace=wrap;html=1;fontSize=12;" vertex="1" parent="pzPkQIcfitXLZxl1gAb0-34">
          <mxGeometry width="100" height="40" as="geometry" />
        </mxCell>
        <mxCell id="pzPkQIcfitXLZxl1gAb0-26" value="" style="shape=image;html=1;verticalAlign=top;verticalLabelPosition=bottom;labelBackgroundColor=#ffffff;imageAspect=0;aspect=fixed;image=https://cdn3.iconfinder.com/data/icons/user-interface-169/32/plus-128.png;fontSize=12;" vertex="1" parent="pzPkQIcfitXLZxl1gAb0-34">
          <mxGeometry x="73" y="43.5" width="27" height="27" as="geometry" />
        </mxCell>
        <mxCell id="pzPkQIcfitXLZxl1gAb0-27" value="" style="shape=image;html=1;verticalAlign=top;verticalLabelPosition=bottom;labelBackgroundColor=#ffffff;imageAspect=0;aspect=fixed;image=https://cdn4.iconfinder.com/data/icons/ionicons/512/icon-minus-128.png;fontSize=12;" vertex="1" parent="pzPkQIcfitXLZxl1gAb0-34">
          <mxGeometry y="47.5" width="23" height="23" as="geometry" />
        </mxCell>
        <mxCell id="pzPkQIcfitXLZxl1gAb0-28" value="0" style="text;html=1;strokeColor=none;fillColor=none;align=center;verticalAlign=middle;whiteSpace=wrap;rounded=0;fontSize=12;" vertex="1" parent="pzPkQIcfitXLZxl1gAb0-34">
          <mxGeometry x="20" y="42" width="60" height="30" as="geometry" />
        </mxCell>
        <mxCell id="pzPkQIcfitXLZxl1gAb0-35" value="" style="group" vertex="1" connectable="0" parent="pzPkQIcfitXLZxl1gAb0-4">
          <mxGeometry x="68" y="180" width="100" height="72" as="geometry" />
        </mxCell>
        <mxCell id="pzPkQIcfitXLZxl1gAb0-21" value="Hunde" style="rounded=1;whiteSpace=wrap;html=1;fontSize=12;" vertex="1" parent="pzPkQIcfitXLZxl1gAb0-35">
          <mxGeometry width="100" height="40" as="geometry" />
        </mxCell>
        <mxCell id="pzPkQIcfitXLZxl1gAb0-22" value="" style="shape=image;html=1;verticalAlign=top;verticalLabelPosition=bottom;labelBackgroundColor=#ffffff;imageAspect=0;aspect=fixed;image=https://cdn3.iconfinder.com/data/icons/user-interface-169/32/plus-128.png;fontSize=12;" vertex="1" parent="pzPkQIcfitXLZxl1gAb0-35">
          <mxGeometry x="73" y="43.5" width="27" height="27" as="geometry" />
        </mxCell>
        <mxCell id="pzPkQIcfitXLZxl1gAb0-23" value="" style="shape=image;html=1;verticalAlign=top;verticalLabelPosition=bottom;labelBackgroundColor=#ffffff;imageAspect=0;aspect=fixed;image=https://cdn4.iconfinder.com/data/icons/ionicons/512/icon-minus-128.png;fontSize=12;" vertex="1" parent="pzPkQIcfitXLZxl1gAb0-35">
          <mxGeometry y="47.5" width="23" height="23" as="geometry" />
        </mxCell>
        <mxCell id="pzPkQIcfitXLZxl1gAb0-24" value="0" style="text;html=1;strokeColor=none;fillColor=none;align=center;verticalAlign=middle;whiteSpace=wrap;rounded=0;fontSize=12;" vertex="1" parent="pzPkQIcfitXLZxl1gAb0-35">
          <mxGeometry x="20" y="42" width="60" height="30" as="geometry" />
        </mxCell>
        <mxCell id="pzPkQIcfitXLZxl1gAb0-36" value="" style="group" vertex="1" connectable="0" parent="pzPkQIcfitXLZxl1gAb0-4">
          <mxGeometry x="68" y="90" width="100" height="72" as="geometry" />
        </mxCell>
        <mxCell id="pzPkQIcfitXLZxl1gAb0-11" value="HauptstÃ¤dte" style="rounded=1;whiteSpace=wrap;html=1;fontSize=12;" vertex="1" parent="pzPkQIcfitXLZxl1gAb0-36">
          <mxGeometry width="100" height="40" as="geometry" />
        </mxCell>
        <mxCell id="pzPkQIcfitXLZxl1gAb0-16" value="" style="shape=image;html=1;verticalAlign=top;verticalLabelPosition=bottom;labelBackgroundColor=#ffffff;imageAspect=0;aspect=fixed;image=https://cdn3.iconfinder.com/data/icons/user-interface-169/32/plus-128.png;fontSize=12;" vertex="1" parent="pzPkQIcfitXLZxl1gAb0-36">
          <mxGeometry x="73" y="43.5" width="27" height="27" as="geometry" />
        </mxCell>
        <mxCell id="pzPkQIcfitXLZxl1gAb0-17" value="" style="shape=image;html=1;verticalAlign=top;verticalLabelPosition=bottom;labelBackgroundColor=#ffffff;imageAspect=0;aspect=fixed;image=https://cdn4.iconfinder.com/data/icons/ionicons/512/icon-minus-128.png;fontSize=12;" vertex="1" parent="pzPkQIcfitXLZxl1gAb0-36">
          <mxGeometry y="47.5" width="23" height="23" as="geometry" />
        </mxCell>
        <mxCell id="pzPkQIcfitXLZxl1gAb0-19" value="3" style="text;html=1;strokeColor=none;fillColor=none;align=center;verticalAlign=middle;whiteSpace=wrap;rounded=0;fontSize=12;" vertex="1" parent="pzPkQIcfitXLZxl1gAb0-36">
          <mxGeometry x="20" y="42" width="60" height="30" as="geometry" />
        </mxCell>
      </root>
    </mxGraphModel>
  </diagram>
  <diagram id="dkZKYh1HJBn1xJquvo22" name="Das Spielfeld">
    <mxGraphModel dx="2062" dy="1122" grid="1" gridSize="10" guides="1" tooltips="1" connect="1" arrows="1" fold="1" page="1" pageScale="1" pageWidth="827" pageHeight="1169" math="0" shadow="0">
      <root>
        <mxCell id="0" />
        <mxCell id="1" parent="0" />
      </root>
    </mxGraphModel>
  </diagram>
  <diagram id="32UuJnKi620Q1XeK7bsK" name="Specials">
    <mxGraphModel dx="2062" dy="1122" grid="1" gridSize="10" guides="1" tooltips="1" connect="1" arrows="1" fold="1" page="1" pageScale="1" pageWidth="827" pageHeight="1169" math="0" shadow="0">
      <root>
        <mxCell id="0" />
        <mxCell id="1" parent="0" />
      </root>
    </mxGraphModel>
  </diagram>
</mxfile>
